<?xml version="1.0" standalone="no"?>
<!DOCTYPE svg PUBLIC "-//W3C//DTD SVG 20010904//EN"
 "http://www.w3.org/TR/2001/REC-SVG-20010904/DTD/svg10.dtd">
<svg version="1.0" xmlns="http://www.w3.org/2000/svg"
 width="2560.000000pt" height="2560.000000pt" viewBox="0 0 2560.000000 2560.000000"
 preserveAspectRatio="xMidYMid meet">
<metadata>
Created by potrace 1.14, written by Peter Selinger 2001-2017
</metadata>
<g transform="translate(0.000000,2560.000000) scale(0.100000,-0.100000)"
fill="#000000" stroke="none">
<path d="M14120 17298 c-19 -5 -37 -13 -40 -16 -3 -4 -50 -29 -105 -56 -84
-42 -115 -65 -203 -150 -58 -56 -121 -123 -142 -151 -20 -27 -51 -64 -69 -81
-17 -17 -51 -59 -75 -95 -120 -173 -176 -260 -211 -324 -21 -38 -51 -92 -67
-118 -15 -26 -28 -52 -28 -57 0 -4 -4 -10 -8 -12 -28 -11 -197 -374 -329 -708
-26 -63 -49 -117 -52 -120 -4 -3 -19 -38 -35 -77 l-28 -72 -56 -18 c-31 -10
-59 -20 -62 -24 -8 -10 -149 -46 -290 -74 -514 -100 -1078 -100 -1715 1 -88
14 -186 26 -218 26 -50 1 -62 -2 -85 -26 -25 -24 -27 -33 -27 -109 0 -77 2
-86 34 -136 42 -66 114 -120 211 -162 41 -17 77 -35 80 -39 10 -14 166 -60
270 -80 330 -64 642 -66 1015 -9 157 24 408 78 415 89 6 10 191 60 220 60 33
0 34 -23 5 -122 -15 -51 -31 -106 -35 -123 -46 -179 -73 -271 -80 -275 -4 -3
-12 -25 -18 -50 -5 -25 -26 -108 -45 -185 -20 -77 -41 -169 -48 -205 -9 -48
-20 -73 -42 -94 l-29 -29 -166 7 c-92 3 -213 12 -268 20 -145 20 -205 6 -229
-51 -38 -91 -4 -209 81 -278 27 -22 56 -47 65 -56 43 -42 213 -101 334 -115
33 -3 68 -11 78 -16 21 -11 49 -70 42 -90 -6 -19 -61 -409 -79 -563 -22 -189
-44 -424 -52 -550 -4 -60 -10 -112 -14 -115 -10 -7 -30 -454 -30 -645 0 -138
11 -222 30 -235 4 -3 17 -24 28 -46 47 -93 184 -175 266 -160 57 11 80 46 84
132 2 41 8 74 12 74 4 0 10 55 14 123 26 449 133 1314 220 1787 8 41 24 129
37 195 24 131 39 160 93 170 47 9 190 57 196 65 3 4 65 30 139 59 130 51 231
97 241 110 5 7 38 25 235 131 32 18 64 38 70 45 12 15 213 149 237 158 9 3 21
0 27 -7 9 -10 0 -43 -32 -132 -156 -425 -238 -812 -254 -1207 -9 -226 14 -359
89 -515 33 -68 57 -102 114 -158 61 -61 83 -75 149 -99 160 -59 297 -30 431
91 56 51 177 178 264 280 40 46 150 192 150 199 0 3 24 41 53 83 28 42 55 84
59 94 4 9 29 51 55 95 27 43 55 93 62 111 8 17 17 32 21 32 4 0 19 18 34 40
29 45 53 52 60 18 3 -13 7 -93 11 -178 10 -272 43 -443 115 -596 44 -93 118
-175 175 -194 19 -6 35 -15 35 -20 0 -16 76 -34 150 -34 73 -1 170 19 170 34
0 4 10 10 23 14 56 14 185 103 274 189 52 51 98 93 103 95 11 4 154 173 184
217 13 18 46 63 75 98 28 36 51 68 51 72 0 13 75 111 103 134 44 36 56 16 68
-110 20 -209 60 -378 122 -507 33 -70 108 -159 153 -182 16 -8 35 -20 42 -27
20 -19 120 -35 171 -28 58 8 121 26 121 35 0 3 17 12 38 19 51 19 129 72 173
118 53 55 139 185 185 278 21 44 42 82 45 85 3 3 13 27 22 54 22 64 22 140 0
177 -23 38 -91 74 -126 65 -29 -7 -57 -50 -57 -87 0 -32 -102 -218 -150 -272
-23 -26 -58 -54 -78 -64 -20 -9 -40 -21 -43 -26 -11 -16 -88 -28 -109 -17 -31
17 -67 109 -85 220 -12 77 -16 166 -16 330 1 237 8 343 41 605 25 196 30 204
126 224 38 8 71 17 74 20 3 4 39 15 80 25 41 10 104 30 140 43 36 14 106 40
157 58 51 18 98 38 105 45 7 6 87 47 178 91 90 45 169 87 175 93 22 27 155 98
171 92 22 -9 18 -24 -68 -276 -41 -118 -92 -287 -113 -375 -22 -88 -43 -162
-46 -165 -16 -13 -60 -263 -80 -450 -18 -167 -16 -427 4 -525 18 -85 63 -214
82 -230 6 -5 24 -29 39 -52 96 -143 253 -212 416 -183 64 11 200 66 200 80 0
4 36 31 80 60 57 37 109 85 182 166 56 63 107 122 112 131 8 14 96 133 125
169 46 57 164 245 229 365 19 35 36 55 50 57 27 4 29 -6 36 -193 8 -197 42
-402 73 -433 7 -7 13 -18 13 -23 0 -19 54 -124 87 -170 18 -26 59 -64 90 -85
32 -22 60 -42 63 -45 10 -12 76 -28 141 -34 63 -7 184 14 199 33 3 4 30 19 60
34 30 16 77 40 104 55 55 31 271 240 326 316 48 66 61 78 74 74 6 -2 16 -54
23 -128 18 -201 37 -259 111 -335 63 -67 161 -72 204 -11 12 18 26 35 31 38 4
3 13 37 18 75 42 285 85 450 182 704 57 148 155 352 177 370 4 3 9 12 13 22 3
9 28 53 56 98 28 45 51 84 51 86 0 13 158 231 201 278 27 30 49 58 49 62 1 5
22 26 48 46 26 21 70 59 97 84 103 96 220 151 341 161 73 7 144 -9 231 -49 52
-25 70 -29 105 -23 87 15 141 116 141 260 0 86 -31 154 -101 224 -38 37 -62
50 -124 69 -102 31 -216 32 -313 2 -67 -21 -190 -82 -197 -98 -4 -10 -126
-102 -136 -102 -9 0 -222 -221 -222 -231 0 -4 -27 -44 -60 -87 -33 -44 -60
-83 -60 -86 0 -3 -25 -44 -55 -91 -30 -46 -55 -89 -55 -95 0 -5 -4 -10 -8 -10
-4 0 -27 -35 -51 -77 -61 -110 -83 -133 -93 -95 -6 23 1 71 46 334 20 114 36
233 36 265 0 110 -39 186 -123 241 -23 15 -48 32 -54 39 -22 20 -115 36 -145
24 -74 -28 -163 -342 -237 -841 -17 -113 -40 -252 -52 -310 -22 -112 -86 -320
-99 -320 -4 0 -15 -24 -25 -52 -47 -147 -244 -403 -390 -511 -38 -28 -72 -55
-75 -59 -9 -12 -90 -38 -117 -38 -39 0 -61 18 -83 66 -84 184 -31 675 184
1677 8 38 13 74 12 80 -34 125 -83 199 -164 249 -20 12 -43 28 -49 34 -13 12
-98 34 -132 34 -10 0 -24 -6 -30 -14 -21 -25 -82 -147 -95 -189 -16 -50 -165
-390 -175 -397 -4 -3 -23 -41 -43 -85 -20 -44 -55 -120 -78 -170 -23 -49 -55
-119 -72 -155 -60 -131 -182 -370 -190 -370 -4 0 -14 -15 -21 -33 -8 -18 -32
-62 -54 -98 -22 -36 -42 -72 -45 -81 -11 -27 -148 -231 -189 -280 -21 -26 -39
-51 -39 -56 0 -5 -37 -40 -82 -78 -44 -38 -95 -82 -112 -97 -40 -36 -154 -71
-201 -63 -87 17 -104 184 -54 531 12 77 24 142 29 145 4 3 11 23 15 45 37 203
127 533 230 840 38 113 124 328 134 335 22 14 111 221 121 281 15 87 0 198
-37 275 -33 67 -64 93 -120 101 -47 6 -82 -10 -133 -59 -45 -44 -163 -128
-217 -156 -23 -12 -51 -30 -61 -40 -18 -18 -267 -144 -312 -157 -14 -4 -27
-11 -30 -15 -9 -13 -223 -89 -280 -100 -83 -16 -214 -52 -220 -61 -7 -10 -126
-39 -162 -39 -42 0 -45 31 -9 103 34 69 123 283 140 337 6 19 24 76 41 125 18
50 52 153 78 230 25 77 49 142 53 145 13 10 70 210 111 390 15 67 22 130 22
215 1 118 0 121 -35 195 -54 115 -137 174 -209 149 -24 -9 -110 -103 -110
-122 0 -3 -16 -29 -35 -59 -20 -29 -52 -88 -72 -130 -20 -43 -40 -78 -44 -78
-11 0 -145 -315 -204 -480 -45 -127 -151 -452 -165 -507 -8 -29 -17 -53 -21
-53 -3 0 -12 -19 -18 -42 -6 -24 -30 -110 -52 -193 -23 -82 -47 -172 -54 -200
-16 -59 -52 -95 -98 -96 -99 -2 -198 3 -326 17 -79 9 -162 13 -186 10 -54 -9
-95 -50 -106 -108 -9 -49 5 -147 27 -191 17 -31 116 -99 172 -118 20 -7 39
-15 42 -19 7 -11 134 -38 210 -45 114 -11 126 -14 138 -39 12 -28 -6 -147 -34
-216 -21 -53 -83 -160 -93 -160 -4 0 -15 -17 -26 -37 -11 -21 -41 -70 -67
-110 -26 -40 -48 -75 -48 -79 0 -3 -25 -42 -55 -85 -30 -43 -55 -81 -55 -85 0
-12 -131 -174 -141 -174 -5 0 -9 -6 -9 -12 0 -24 -217 -254 -276 -294 -33 -21
-61 -42 -64 -46 -9 -12 -91 -38 -119 -38 -40 0 -66 23 -90 80 -58 135 -42 477
49 1015 52 305 118 628 132 636 14 9 15 139 1 147 -7 4 -21 28 -31 53 -20 46
-90 121 -140 149 -15 8 -29 18 -32 21 -11 13 -47 27 -87 34 -45 7 -83 -6 -83
-30 0 -8 -5 -15 -10 -15 -12 0 -39 -56 -156 -325 -122 -279 -223 -488 -240
-498 -8 -4 -14 -16 -14 -25 0 -10 -4 -22 -9 -27 -4 -6 -53 -98 -108 -205 -55
-108 -112 -215 -127 -238 -14 -23 -26 -44 -26 -48 0 -13 -83 -144 -91 -144 -5
0 -9 -5 -9 -11 0 -6 -25 -49 -55 -95 -30 -47 -55 -87 -55 -89 0 -3 -26 -40
-57 -83 -32 -42 -62 -84 -68 -93 -28 -46 -99 -131 -121 -145 -14 -10 -39 -30
-56 -45 -43 -41 -102 -57 -137 -38 -48 27 -62 92 -57 269 7 212 50 449 143
770 36 124 98 306 108 316 6 6 21 44 34 85 52 165 156 399 271 608 24 43 30
65 30 115 0 108 -35 205 -98 273 -47 50 -71 63 -117 63 -30 0 -43 -7 -72 -40
-20 -22 -40 -40 -44 -40 -9 0 -139 -96 -154 -114 -15 -18 -164 -111 -236 -147
-35 -18 -70 -39 -78 -46 -28 -28 -148 -83 -298 -136 -18 -7 -33 -15 -33 -19 0
-13 -388 -158 -424 -158 -9 0 -16 -4 -16 -9 0 -12 -214 -73 -233 -66 -8 4 -18
13 -21 21 -8 21 92 411 211 824 87 302 98 332 132 371 16 19 38 44 48 56 10
12 71 52 137 88 65 36 125 72 133 81 8 8 29 22 46 30 39 20 191 125 195 134 1
4 44 38 94 76 100 75 366 336 432 424 23 30 56 70 74 89 18 18 40 50 49 70 10
20 36 65 59 101 87 135 165 327 200 488 18 86 18 282 0 347 -37 134 -98 218
-193 266 -26 13 -51 28 -54 32 -18 25 -218 36 -289 15z m238 -309 c88 -30 92
-242 9 -433 -12 -27 -27 -54 -33 -60 -6 -6 -26 -38 -44 -71 -18 -33 -51 -83
-72 -112 -21 -29 -38 -55 -38 -59 0 -15 -192 -234 -246 -279 -32 -27 -76 -68
-99 -90 -22 -22 -67 -61 -100 -86 -33 -26 -74 -59 -91 -75 -17 -16 -44 -36
-60 -44 -16 -8 -52 -30 -81 -48 -87 -57 -116 -35 -79 58 89 224 127 310 137
310 4 0 16 24 27 53 35 93 179 375 253 497 49 79 78 120 121 165 21 21 38 45
38 51 0 22 180 195 223 215 48 21 90 24 135 8z"/>
<path d="M23705 14266 c-75 -15 -219 -68 -240 -90 -7 -7 -46 -32 -86 -57 -141
-86 -343 -306 -467 -508 -57 -93 -152 -278 -152 -296 0 -7 -6 -20 -14 -27 -23
-23 -42 -68 -79 -183 -86 -265 -112 -427 -104 -655 7 -199 34 -318 103 -450
37 -70 58 -97 115 -145 39 -33 78 -67 88 -75 65 -59 209 -87 366 -70 97 10
275 48 285 60 3 3 32 17 65 30 91 35 254 121 279 147 11 12 25 23 30 23 24 0
131 102 182 173 107 149 134 216 134 330 0 84 -15 121 -50 125 -20 2 -38 -12
-87 -67 -35 -38 -63 -74 -63 -79 0 -8 -38 -46 -176 -173 -27 -25 -85 -69 -129
-99 -44 -29 -82 -56 -85 -60 -22 -31 -228 -98 -323 -106 -85 -8 -172 13 -224
52 -40 30 -99 147 -113 223 -15 80 -13 216 4 230 7 6 64 24 127 40 107 27 207
64 219 79 3 4 67 38 143 76 76 38 148 79 160 91 12 11 52 42 88 68 36 25 92
70 124 99 141 128 185 172 185 182 0 6 27 45 60 86 33 41 60 77 60 81 0 3 18
37 40 75 38 66 90 198 90 228 0 8 6 16 13 19 16 5 17 244 1 255 -6 4 -21 38
-35 77 -39 112 -173 245 -287 283 -55 19 -172 22 -247 8z m258 -376 c37 -29
45 -93 22 -178 -20 -75 -80 -202 -95 -202 -6 0 -10 -6 -10 -12 0 -26 -107
-156 -214 -263 -89 -88 -131 -121 -211 -167 -55 -31 -113 -63 -130 -70 -16 -7
-35 -18 -42 -24 -18 -17 -150 -56 -180 -52 -21 2 -29 9 -31 27 -4 25 36 141
48 141 4 0 15 19 25 43 29 71 117 239 154 297 20 30 42 67 51 82 45 81 158
202 255 274 33 25 68 51 77 59 52 42 114 63 194 64 47 1 67 -4 87 -19z"/>
<path d="M1155 14230 c-67 -11 -167 -39 -175 -49 -3 -3 -32 -17 -65 -30 -33
-14 -76 -35 -95 -48 -19 -13 -39 -23 -45 -23 -33 -2 -163 -160 -197 -240 -11
-24 -23 -47 -28 -50 -16 -10 -40 -123 -47 -217 -7 -115 20 -303 47 -323 4 -3
21 -32 39 -65 36 -66 94 -131 156 -173 22 -15 43 -32 47 -37 15 -23 195 -95
343 -137 44 -12 82 -25 85 -29 3 -3 30 -12 60 -19 199 -46 253 -64 388 -127
49 -23 111 -82 134 -127 25 -48 29 -151 9 -221 -21 -69 -86 -132 -171 -165
-36 -13 -68 -28 -71 -32 -19 -27 -348 -25 -357 2 -2 5 -12 10 -21 10 -49 0
-312 111 -349 147 -72 72 -148 113 -209 113 -147 0 -227 -104 -199 -259 7 -35
19 -55 58 -93 27 -26 55 -48 62 -48 7 0 28 -14 47 -31 44 -40 255 -143 339
-165 36 -10 68 -21 71 -26 3 -5 52 -18 110 -29 152 -31 396 -31 533 -1 55 12
102 26 105 30 4 4 26 16 51 25 118 44 256 153 329 260 18 27 47 88 65 135 30
85 31 91 31 262 0 188 -10 240 -62 322 -12 21 -23 41 -23 44 0 19 -56 77 -110
115 -33 23 -60 45 -60 49 0 21 -216 117 -338 150 -42 12 -79 25 -82 29 -3 4
-63 22 -135 40 -228 57 -328 95 -384 147 -14 13 -29 24 -34 24 -13 0 -67 93
-67 117 0 13 -4 23 -10 23 -5 0 -10 25 -10 55 0 30 4 55 9 55 5 0 14 20 20 44
15 61 100 139 179 163 31 10 60 22 64 27 9 14 248 13 256 -1 4 -5 24 -13 45
-17 89 -17 367 -143 367 -167 0 -11 59 -29 95 -29 39 0 95 18 95 31 0 5 6 9
13 9 20 0 64 50 81 92 33 77 6 188 -53 226 -14 9 -34 24 -43 32 -26 24 -201
104 -283 130 -22 7 -42 16 -45 20 -3 4 -50 17 -105 29 -114 25 -360 36 -460
21z"/>
<path d="M9968 14230 c-89 -14 -179 -40 -195 -56 -8 -8 -21 -14 -30 -14 -9 0
-57 -22 -107 -49 -75 -41 -103 -63 -154 -123 -35 -40 -77 -102 -94 -138 -16
-36 -34 -68 -39 -71 -18 -11 -39 -151 -40 -257 -1 -112 21 -243 44 -266 7 -7
21 -33 32 -57 27 -62 78 -123 144 -172 31 -23 58 -44 61 -47 25 -29 220 -107
360 -146 36 -10 67 -20 70 -24 3 -3 71 -22 152 -42 221 -55 320 -97 389 -167
38 -37 61 -70 68 -96 27 -98 1 -217 -62 -283 -31 -32 -142 -92 -171 -92 -8 0
-16 -5 -18 -10 -9 -27 -348 -29 -367 -3 -3 5 -41 18 -83 31 -95 27 -255 104
-298 143 -17 16 -52 43 -78 61 -43 30 -53 33 -123 33 -67 0 -81 -4 -117 -29
-57 -39 -77 -85 -77 -173 0 -63 3 -76 30 -113 17 -24 51 -54 77 -69 26 -14 59
-36 75 -49 63 -52 234 -134 338 -162 28 -7 52 -17 55 -20 20 -29 333 -65 470
-55 130 9 285 37 300 54 3 3 50 28 105 55 85 42 113 62 185 135 74 75 91 99
123 174 91 211 89 451 -5 637 -35 69 -55 94 -108 138 -36 29 -74 61 -85 71
-56 48 -198 111 -340 151 -44 12 -82 26 -85 30 -3 4 -75 24 -160 45 -239 59
-310 88 -389 161 -55 51 -81 96 -81 143 0 17 -4 31 -10 31 -5 0 -10 11 -10 25
0 14 4 25 9 25 5 0 12 20 15 44 13 82 100 169 201 198 22 7 43 17 47 23 10 15
261 12 266 -3 2 -7 12 -12 22 -12 60 0 334 -117 385 -164 34 -32 101 -42 160
-26 25 7 45 16 45 20 0 4 11 12 24 18 14 6 37 32 51 57 24 40 27 54 23 114 -3
56 -9 75 -32 105 -15 21 -35 40 -43 43 -8 3 -26 16 -39 28 -14 13 -39 28 -57
35 -17 7 -59 25 -92 40 -33 15 -85 36 -115 46 -30 11 -57 22 -60 26 -3 4 -53
16 -110 28 -118 24 -359 35 -452 20z"/>
<path d="M2762 14209 c-40 -15 -90 -70 -112 -121 -20 -47 -20 -55 -18 -1125 3
-1201 -3 -1100 71 -1178 39 -41 73 -55 138 -55 89 0 148 39 189 125 18 37 20
66 20 355 l1 315 87 90 c48 50 120 120 160 157 l72 67 17 -27 c10 -15 41 -57
70 -93 29 -36 53 -70 53 -74 0 -8 70 -94 118 -144 17 -19 32 -38 32 -42 0 -4
27 -42 60 -83 33 -42 60 -78 60 -82 0 -3 28 -42 63 -87 35 -45 70 -93 79 -107
8 -14 38 -50 66 -80 29 -30 52 -59 52 -64 0 -23 154 -196 190 -213 31 -15 103
-16 152 -2 98 27 166 174 127 276 -15 41 -94 154 -136 196 -19 20 -50 56 -67
81 -38 55 -132 177 -208 273 -32 39 -58 75 -58 80 0 4 -32 42 -70 83 -39 41
-70 79 -70 83 0 5 -27 42 -60 82 -33 40 -60 76 -60 80 0 3 -25 37 -55 74 -30
38 -55 72 -55 76 0 13 230 248 345 353 17 15 77 77 135 137 58 61 141 143 184
184 99 94 133 141 142 197 12 80 -45 180 -119 212 -38 16 -132 15 -165 -2 -15
-8 -54 -41 -87 -73 -33 -32 -73 -70 -90 -84 -16 -14 -68 -66 -115 -115 -154
-162 -573 -595 -712 -737 l-138 -140 0 504 c-1 456 -2 507 -18 535 -25 46 -68
93 -99 109 -31 17 -135 19 -171 4z"/>
<path d="M5062 14205 c-35 -15 -76 -59 -104 -109 -16 -29 -17 -112 -17 -1116
-1 -1049 0 -1086 19 -1125 41 -86 100 -125 189 -125 85 0 140 35 184 115 l22
40 3 1082 c2 1070 2 1083 -18 1126 -23 49 -75 102 -115 117 -38 14 -124 12
-163 -5z"/>
<path d="M5985 14206 c-16 -7 -46 -29 -66 -48 -75 -70 -69 23 -69 -1167 0
-1196 -4 -1122 71 -1177 22 -16 49 -37 61 -46 12 -10 30 -18 42 -18 62 0 1085
0 1107 0 33 0 110 67 133 114 20 42 21 116 2 161 -20 46 -80 105 -119 116 -18
5 -222 9 -454 9 l-423 0 0 958 0 958 -29 45 c-17 24 -36 52 -44 61 -35 44
-149 62 -212 34z"/>
<path d="M7702 14205 c-35 -15 -76 -59 -104 -109 -16 -29 -17 -111 -18 -1103
0 -1207 -6 -1117 78 -1195 l47 -43 551 -5 c303 -3 567 -2 587 1 19 3 42 12 50
20 8 9 28 27 45 41 16 14 37 39 46 56 18 36 21 108 5 149 -14 38 -95 113 -133
124 -17 5 -219 9 -448 9 l-418 0 -2 973 -3 974 -35 46 c-21 27 -50 52 -73 62
-47 19 -131 19 -175 0z"/>
</g>
</svg>
